<?xml version="1.0" encoding="utf-8"?>
<!-- Generator: Adobe Illustrator 23.0.2, SVG Export Plug-In . SVG Version: 6.00 Build 0)  -->
<svg version="1.1" xmlns="http://www.w3.org/2000/svg" xmlns:xlink="http://www.w3.org/1999/xlink" x="0px" y="0px"
	 viewBox="0 0 560 288" style="enable-background:new 0 0 560 288;" xml:space="preserve">
<style type="text/css">
	.st0{display:none;}
	.st1{fill:#294491;}
	.st2{fill:#DA281E;}
</style>
<g id="图层_1" class="st0">
	
		<image style="display:inline;overflow:visible;" width="632" height="208" xlink:href="D:\微信\WeChat Files\baobei881207\FileStorage\File\2023-08\WEBD-1007_Tingting_Wei_Project_4\WEBD-1007_Tingting_Wei_Project_4\images\image10.jpg"  transform="matrix(0.812 0 0 0.812 19.8954 42.9771)">
	</image>
</g>
<g id="图层_2">
	<polygon class="st1" points="20.7,211 66.8,211 98.5,126.6 113,211 151.8,211 213.9,44.5 174.2,44.5 145.1,113.9 134.2,44.5 
		88.7,44.5 	"/>
	<polygon class="st1" points="251.7,44.7 192.7,210.1 224.2,210.1 276.7,71.4 324.1,210.1 360.3,210.1 299.9,44.7 	"/>
	<polygon class="st2" points="274.6,123.6 242.1,210.1 305.4,210.1 	"/>
	<polygon class="st1" points="338.7,43 400.6,210.1 439.6,210.1 452.9,127.7 485.1,210.1 530.4,208.9 463,43 419,43 407.8,112.3 
		377.9,43 	"/>
</g>
</svg>
